<svg width="180" height="50" viewBox="0 0 180 50" fill="none" xmlns="http://www.w3.org/2000/svg">
<path fill-rule="evenodd" clip-rule="evenodd" d="M27.0871 35.0516C28.524 35.0516 29.6889 36.2165 29.6889 37.6534C29.6889 39.0904 28.524 40.2553 27.0871 40.2553C25.6501 40.2553 24.4852 39.0904 24.4852 37.6534C24.4852 36.2165 25.6501 35.0516 27.0871 35.0516ZM0.62926 18.6171H0.629332L4.07044 17.5843C5.07358 17.2832 6.13119 17.7183 6.59111 18.6592L6.64813 18.7759C7.08331 19.6659 8.0492 20.1226 9.01323 19.8941L24.9845 16.1079C25.6032 15.9612 26.1941 16.081 26.7068 16.4572C27.2195 16.8333 27.5112 17.361 27.557 17.9952L28.1739 26.5339C28.245 27.5189 27.6442 28.3968 26.7002 28.6871L11.0206 33.5084C10.7985 33.6144 10.6244 33.8077 10.5452 34.0488C10.4375 34.3764 10.5232 34.7367 10.7669 34.9809C10.9748 35.1894 11.2678 35.2829 11.5532 35.2392L11.6982 35.2047L11.6984 35.2046L27.7458 31.3896C28.1713 31.3006 28.6118 31.4478 28.8984 31.7748C29.185 32.1017 29.2731 32.5577 29.1291 32.9679C29.0122 33.3007 28.7573 33.5615 28.4366 33.6886C28.361 33.7149 28.2831 33.7372 28.2032 33.755L10.9319 37.5994C10.3272 37.734 9.75464 37.6164 9.25205 37.2542C8.74949 36.892 8.4567 36.3862 8.39308 35.77L8.1493 33.4112C8.09115 32.8481 8.25309 32.3141 8.57978 31.9C9.09328 31.2489 9.18001 30.4133 8.81107 29.6707L4.63393 21.263C4.28622 20.5632 3.63457 20.1383 2.85397 20.1025C2.4689 20.0849 1.36635 20.6753 0.674314 20.4473C0.224116 20.2989 -0.128381 19.5347 0.0450264 19.0948C0.163197 18.795 0.350758 18.7063 0.62926 18.6171ZM14.5986 37.6534C16.0355 37.6534 17.2004 38.8183 17.2004 40.2553C17.2004 41.6922 16.0355 42.8571 14.5986 42.8571C13.1616 42.8571 11.9968 41.6922 11.9968 40.2553C11.9968 38.8183 13.1616 37.6534 14.5986 37.6534Z" fill="#0F6A44"/>
<mask id="mask0_194_7767" style="mask-type:luminance" maskUnits="userSpaceOnUse" x="11" y="7" width="15" height="22">
<path d="M14.6915 7.14282C14.6915 7.14282 14.6433 9.63316 13.5396 12.5461C12.4358 15.4589 10.1484 19.9453 12.0487 24.0421C12.6286 25.2921 13.3949 26.2619 14.2671 26.9762L14.2673 26.976C15.6052 28.0716 17.1941 28.5617 18.7484 28.5229L18.7488 28.5245C19.3149 28.5103 19.8532 28.4334 20.3611 28.3022C20.8665 28.1619 21.3711 27.9593 21.8685 27.6886L21.8681 27.687C23.2335 26.9435 24.3645 25.7246 24.9754 24.1069L24.9756 24.1068C25.3738 23.0522 25.5526 21.8292 25.4297 20.4568C25.027 15.9586 20.8029 13.2171 18.3906 11.2463C15.9782 9.2755 14.6915 7.14282 14.6915 7.14282Z" fill="white"/>
</mask>
<g mask="url(#mask0_194_7767)">
<path d="M25.5526 7.14282H10.1484V28.5617H25.5526V7.14282Z" fill="#2E7DAF"/>
</g>
<path opacity="0.3" fill-rule="evenodd" clip-rule="evenodd" d="M19.1916 23.943C21.1611 23.4152 22.7669 21.5299 22.5125 18.6877C22.2306 15.5388 19.2201 13.5734 16.9913 11.7525C16.6191 11.4485 16.2603 11.1263 15.9149 10.7922L15.5814 10.4697L15.4539 10.9158C15.3218 11.3778 15.1722 11.8362 15.0019 12.2855C13.9821 14.9769 12.3576 18.1843 13.688 21.0522C14.8887 23.6408 17.222 24.4707 19.1916 23.943Z" fill="black"/>
<path fill-rule="evenodd" clip-rule="evenodd" d="M15.6405 10.6919C16.0075 11.0469 16.3778 11.3765 16.7343 11.6677C18.881 13.4216 21.8826 15.3765 22.1543 18.4121C22.395 21.1 20.889 22.8796 19.039 23.3754C17.1889 23.8711 14.9949 23.0828 13.8594 20.6348C12.5769 17.8699 14.1989 14.6761 15.1811 12.0839C15.3443 11.6535 15.5001 11.1828 15.6405 10.6919Z" fill="#FEFEFE"/>
<path d="M39.5501 35.387C38.0489 35.387 36.832 34.1701 36.832 32.669V19.7511C36.832 17.5381 38.626 15.7442 40.839 15.7442C41.9122 15.7442 42.9406 16.1747 43.6937 16.9394L48.3499 21.6668H48.4987L53.1152 16.9068C53.836 16.1636 54.827 15.7442 55.8623 15.7442C57.9758 15.7442 59.6892 17.4575 59.6892 19.571V32.6553C59.6892 34.164 58.4661 35.387 56.9575 35.387C55.2708 35.387 53.9871 33.8736 54.2624 32.2095L56.3558 19.5537H56.0582L50.9814 24.7034C50.2498 25.4455 49.2513 25.8632 48.2094 25.8632C47.1576 25.8632 46.1506 25.4376 45.4177 24.6833L40.4332 19.5537H40.1356L42.2317 32.2254C42.5056 33.8812 41.2283 35.387 39.5501 35.387Z" fill="#0F6A44"/>
<path d="M66.1735 35.7739C65.3204 35.7739 64.5565 35.6152 63.8819 35.2978C63.2073 34.9604 62.6716 34.4644 62.2747 33.8097C61.8978 33.1549 61.7093 32.3414 61.7093 31.3692C61.7093 30.5557 61.8581 29.8612 62.1557 29.2858C62.4732 28.7104 62.9394 28.2442 63.5545 27.887C64.1696 27.51 64.9335 27.2025 65.8462 26.9644C66.7589 26.7065 67.8303 26.4882 69.0605 26.3097C69.7351 26.2104 70.2807 26.1112 70.6974 26.012C71.1339 25.9128 71.4513 25.764 71.6497 25.5656C71.8481 25.3474 71.9474 25.0299 71.9474 24.6132C71.9474 23.9981 71.7291 23.4724 71.2926 23.0358C70.8759 22.5795 70.1914 22.3513 69.239 22.3513C68.6636 22.3513 68.1081 22.4505 67.5724 22.6489C67.0565 22.8474 66.6101 23.1648 66.2331 23.6013C65.5656 24.339 64.6231 25.009 63.6728 24.7147C62.7988 24.4439 62.2601 23.5053 62.7076 22.7071C62.8127 22.5196 62.9264 22.3415 63.0485 22.1727C63.4652 21.5775 63.9811 21.0716 64.5962 20.6549C65.2112 20.2382 65.9156 19.9307 66.7093 19.7323C67.5029 19.5339 68.3759 19.4347 69.3283 19.4347C70.7767 19.4347 71.9672 19.6727 72.8997 20.1489C73.8323 20.6053 74.5267 21.3295 74.9831 22.3216C75.4394 23.2938 75.6676 24.5537 75.6676 26.1013V29.018C75.6676 29.6926 75.6775 30.397 75.6974 31.1311C75.737 31.8454 75.7767 32.5696 75.8164 33.3037C75.8218 33.3687 75.8273 33.4335 75.8329 33.4981C75.9198 34.5051 75.1367 35.387 74.126 35.387C73.2858 35.387 72.5706 34.7694 72.4857 33.9334C72.4746 33.8239 72.4638 33.7132 72.4533 33.6013C72.3938 32.9664 72.3442 32.3216 72.3045 31.6668C72.0267 32.4208 71.1537 33.1152 70.6378 33.7501C70.122 34.3652 69.487 34.8612 68.7331 35.2382C67.9989 35.5954 67.1458 35.7739 66.1735 35.7739ZM67.6616 33.0061C68.0585 33.0061 68.4553 32.9366 68.8521 32.7977C69.2688 32.6589 69.6755 32.4505 70.0724 32.1727C70.4692 31.895 70.8362 31.5577 71.1735 31.1608C71.5108 30.7442 71.7985 30.2581 72.0366 29.7025L71.9771 27.0537L72.6914 27.1727C72.3541 27.4505 71.9374 27.6688 71.4414 27.8275C70.9454 27.9862 70.4196 28.1053 69.864 28.1847C69.3283 28.264 68.7827 28.3632 68.2271 28.4823C67.6914 28.5815 67.2053 28.7204 66.7688 28.8989C66.3323 29.0577 65.9851 29.2958 65.7271 29.6132C65.4692 29.9108 65.3402 30.3275 65.3402 30.8632C65.3402 31.5378 65.5585 32.0636 65.995 32.4406C66.4315 32.8176 66.987 33.0061 67.6616 33.0061Z" fill="#0F6A44"/>
<path d="M80.1072 35.387C79.0717 35.387 78.2322 34.5476 78.2322 33.512V21.3902C78.2322 20.5239 78.9345 19.8216 79.8008 19.8216C80.674 19.8216 81.3791 20.5345 81.3694 21.4076L81.3275 25.1787C81.506 23.9089 82.3195 22.8573 82.6965 22.0239C83.0735 21.1708 83.5993 20.5358 84.2739 20.1192C84.9485 19.6827 85.7818 19.4644 86.7739 19.4644C86.9723 19.4644 87.1806 19.4743 87.3989 19.4942C87.8607 19.5327 88.1605 19.9686 88.1431 20.4317L88.062 22.589C88.0432 23.0871 87.5368 23.4215 87.0418 23.3632C86.7243 23.3037 86.4267 23.2739 86.1489 23.2739C85.3751 23.2739 84.7005 23.4724 84.1251 23.8692C83.5695 24.266 83.1132 24.8315 82.756 25.5656C82.4187 26.2799 82.1608 27.1331 81.9822 28.1251V33.512C81.9822 34.5476 81.1428 35.387 80.1072 35.387Z" fill="#0F6A44"/>
<path d="M91.1452 35.387C90.1261 35.387 89.2999 34.5609 89.2999 33.5418V16.0716C89.2999 15.0525 90.1261 14.2263 91.1452 14.2263C92.1643 14.2263 92.9904 15.0525 92.9904 16.0716V26.1013C93.665 25.6847 94.3099 25.2283 94.9249 24.7323C95.54 24.2164 96.1055 23.6807 96.6214 23.1251C97.1372 22.5696 97.5936 22.014 97.9904 21.4585C98.1163 21.2759 98.2352 21.0964 98.3471 20.9199C98.762 20.2654 99.4621 19.8216 100.237 19.8216H100.673C101.92 19.8216 102.742 21.0837 102.038 22.1132C101.522 22.8672 100.917 23.5616 100.223 24.1966C99.548 24.8315 98.7841 25.387 97.9309 25.8632C97.0777 26.3196 96.165 26.637 95.1928 26.8156V27.2323C96.423 27.0537 97.4547 27.1132 98.288 27.4108C99.1214 27.7085 99.8257 28.1549 100.401 28.7501C100.977 29.3454 101.453 30.0398 101.83 30.8335C102.227 31.6073 102.594 32.4009 102.931 33.2144C103.308 34.2736 102.523 35.387 101.398 35.387H100.962C100.129 35.387 99.3902 34.8542 99.1269 34.0643L99.0916 33.9585C98.7146 32.9664 98.3178 32.0934 97.9011 31.3394C97.5043 30.5656 96.9984 29.9704 96.3833 29.5537C95.788 29.1172 95.0142 28.8989 94.0618 28.8989H92.9904V33.5418C92.9904 34.5609 92.1643 35.387 91.1452 35.387Z" fill="#0F6A44"/>
<path d="M111.606 35.7739C110.356 35.7739 109.235 35.5954 108.243 35.2382C107.27 34.8811 106.447 34.3652 105.772 33.6906C105.098 32.9962 104.582 32.1628 104.225 31.1906C103.868 30.2184 103.689 29.1172 103.689 27.887C103.689 26.6569 103.858 25.5259 104.195 24.4942C104.552 23.4624 105.058 22.5696 105.713 21.8156C106.368 21.0616 107.161 20.4763 108.094 20.0597C109.046 19.643 110.128 19.4347 111.338 19.4347C112.469 19.4347 113.481 19.6231 114.374 20.0001C115.267 20.3771 116.02 20.9426 116.636 21.6966C117.251 22.4307 117.707 23.3533 118.005 24.4644C118.101 24.8177 118.176 25.1896 118.231 25.5803C118.443 27.0895 117.127 28.2861 115.603 28.302L110.8 28.3518C110.195 28.3581 109.701 27.8691 109.701 27.2637C109.701 26.6687 110.179 26.184 110.774 26.1757L116.13 26.1013L114.82 27.3216C114.939 26.1906 114.85 25.268 114.552 24.5537C114.255 23.8196 113.828 23.2839 113.272 22.9466C112.717 22.5894 112.082 22.4108 111.368 22.4108C110.554 22.4108 109.84 22.6291 109.225 23.0656C108.61 23.4823 108.134 24.0974 107.796 24.9108C107.479 25.7045 107.32 26.6767 107.32 27.8275C107.32 29.5537 107.697 30.8434 108.451 31.6966C109.225 32.5497 110.276 32.9763 111.606 32.9763C112.201 32.9763 112.697 32.9069 113.094 32.768C113.511 32.6093 113.858 32.4108 114.136 32.1727C114.413 31.9148 114.632 31.6271 114.79 31.3097C115.091 30.7744 115.678 30.4048 116.277 30.5409L116.814 30.6629C117.737 30.8728 118.349 31.8087 117.911 32.6483C117.847 32.7708 117.779 32.89 117.707 33.0061C117.35 33.5815 116.884 34.0775 116.308 34.4942C115.753 34.9108 115.088 35.2283 114.314 35.4466C113.54 35.6648 112.638 35.7739 111.606 35.7739Z" fill="#0F6A44"/>
<path d="M125.688 35.7442C124.041 35.7442 122.831 35.3077 122.057 34.4347C121.284 33.5418 120.897 32.1628 120.897 30.2978V22.8275H120.123C119.29 22.8275 118.619 22.143 118.635 21.3097C118.652 20.4996 119.313 19.8513 120.123 19.8513H120.182C120.758 19.8513 121.184 19.762 121.462 19.5835C121.74 19.4049 121.909 19.0874 121.968 18.6311L122.169 17.358C122.259 16.7886 122.75 16.3692 123.326 16.3692C123.973 16.3692 124.498 16.8937 124.498 17.5407V19.8216H127.042C127.905 19.8216 128.605 20.5211 128.605 21.3841C128.605 22.247 127.905 22.9466 127.042 22.9466H124.498V30.1489C124.498 30.8831 124.666 31.4188 125.004 31.7561C125.361 32.0934 125.887 32.262 126.581 32.262C126.958 32.262 127.325 32.2224 127.682 32.143C128.154 32.0189 128.724 32.3304 128.724 32.8179V34.2491C128.724 34.8387 128.346 35.3726 127.77 35.4991C127.512 35.5558 127.265 35.5978 127.028 35.6251C126.532 35.7045 126.085 35.7442 125.688 35.7442Z" fill="#0F6A44"/>
<path d="M132.405 35.387C131.369 35.387 130.53 34.5476 130.53 33.512V20.5061C130.53 17.8762 132.662 15.7442 135.292 15.7442H138.119C139.151 15.7442 140.093 15.8335 140.946 16.012C141.819 16.1708 142.583 16.4089 143.238 16.7263C143.913 17.0438 144.478 17.4406 144.934 17.9168C145.391 18.3731 145.738 18.9089 145.976 19.5239C146.214 20.1192 146.333 20.7839 146.333 21.518C146.333 22.2124 146.224 22.8474 146.006 23.4227C145.788 23.9783 145.46 24.4644 145.024 24.8811C144.607 25.2977 144.071 25.645 143.417 25.9227C142.782 26.1807 142.038 26.3692 141.184 26.4882V26.8751C142.097 26.9942 142.841 27.2224 143.417 27.5597C144.012 27.897 144.488 28.3632 144.845 28.9585C145.202 29.5537 145.51 30.3176 145.768 31.2501L146.24 32.8902C146.6 34.1405 145.661 35.387 144.36 35.387C143.457 35.387 142.672 34.769 142.459 33.8915L141.899 31.5775C141.72 30.7839 141.442 30.1489 141.065 29.6727C140.708 29.1966 140.252 28.8593 139.696 28.6608C139.141 28.4624 138.466 28.3632 137.673 28.3632H134.28V33.512C134.28 34.5476 133.44 35.387 132.405 35.387ZM134.28 25.4763H137.851C139.339 25.4763 140.47 25.1985 141.244 24.643C142.038 24.0874 142.434 23.2343 142.434 22.0835C142.434 20.9327 142.057 20.0795 141.304 19.5239C140.569 18.9684 139.438 18.6906 137.911 18.6906H134.28V25.4763Z" fill="#2E7DAF"/>
<path d="M153.891 35.7739C152.105 35.7739 150.756 35.1688 149.844 33.9585C148.951 32.7283 148.504 30.8731 148.504 28.393V21.7114C148.504 20.6677 149.35 19.8216 150.394 19.8216C151.438 19.8216 152.284 20.6677 152.284 21.7114V27.9763C152.284 29.5438 152.522 30.7144 152.998 31.4882C153.475 32.262 154.209 32.6489 155.201 32.6489C155.776 32.6489 156.282 32.51 156.719 32.2323C157.155 31.9347 157.532 31.5279 157.85 31.012C158.167 30.4763 158.415 29.8612 158.594 29.1668C158.792 28.4724 158.911 27.7085 158.951 26.8751V21.6966C158.951 20.661 159.79 19.8216 160.826 19.8216C161.861 19.8216 162.701 20.661 162.701 21.6966V33.8488C162.701 34.6983 162.012 35.387 161.162 35.387C160.306 35.387 159.614 34.6869 159.624 33.8301L159.665 30.4763H159.129C158.871 31.7263 158.504 32.7382 158.028 33.512C157.572 34.2858 157.006 34.8612 156.332 35.2382C155.657 35.5954 154.844 35.7739 153.891 35.7739Z" fill="#2E7DAF"/>
<path d="M167.324 35.387C166.288 35.387 165.449 34.5476 165.449 33.512V21.3694C165.449 20.5146 166.142 19.8216 166.996 19.8216C167.863 19.8216 168.56 20.5324 168.544 21.3984L168.484 24.5835H169.02C169.298 23.4128 169.665 22.4505 170.121 21.6966C170.597 20.9426 171.203 20.3771 171.937 20.0001C172.671 19.6231 173.524 19.4347 174.496 19.4347C176.262 19.4347 177.601 20.0597 178.514 21.3097C179.447 22.5597 179.913 24.4942 179.913 27.1132V33.4972C179.913 34.5409 179.067 35.387 178.023 35.387C176.979 35.387 176.133 34.5409 176.133 33.4972V27.5001C176.133 25.8136 175.875 24.5835 175.359 23.8097C174.863 23.016 174.119 22.6192 173.127 22.6192C172.294 22.6192 171.589 22.887 171.014 23.4227C170.439 23.9386 169.992 24.6331 169.675 25.5061C169.377 26.3593 169.218 27.3017 169.199 28.3335V33.512C169.199 34.5476 168.359 35.387 167.324 35.387Z" fill="#2E7DAF"/>
</svg>
